<svg id="Layer_1" data-name="Layer 1" xmlns="http://www.w3.org/2000/svg" viewBox="0 0 302.45 85.74"><defs><style>.cls-1,.cls-2,.cls-3{fill:#fff;}.cls-1,.cls-2{stroke:#000;stroke-miterlimit:10;}.cls-2{stroke-width:6px;}.cls-3{font-size:30px;font-family:LucidaCalligraphy-Italic, Lucida Calligraphy;font-style:italic;}.cls-4{font-size:39.66px;fill:#5f3916;font-family:Rockwell-ExtraBold, Rockwell Extra Bold;font-weight:800;}.cls-5{letter-spacing:-0.02em;}</style></defs><path class="cls-1" d="M1708.5,51.5" transform="translate(-545.18 -322)"/><path class="cls-2" d="M587.74,325H793.66c8.3,0,13.6,7.78,9.62,14.16C791.61,357.88,811.35,364,829.89,358c7.15-2.3,14.74,2.32,14.74,9v26c0,5.3-4.9,9.59-11,9.59H599.28c-8.33,0-13.57-7.81-9.58-14.21,7.46-12,8.35-25.66-26.93-14.63-7.11,2.22-14.59-2.43-14.59-9v-5.11C548.18,340.51,565.89,325,587.74,325Z" transform="translate(-545.18 -322)"/><ellipse class="cls-2" cx="32.64" cy="62.9" rx="19.96" ry="17.48"/><path d="M152.34,48H289.86a7.64,7.64,0,0,1,7.64,7.64v17a7.64,7.64,0,0,1-7.64,7.64H145.46a.77.77,0,0,1-.77-.77V55.64A7.64,7.64,0,0,1,152.34,48Z"/><text class="cls-3" transform="translate(151.13 75.98)">RESORT</text><polygon points="14.87 52 36.27 63.09 14.87 74.19 14.87 52"/><text class="cls-4" transform="translate(63.03 47.29)">BE<tspan class="cls-5" x="63.61" y="0">A</tspan><tspan x="92.95" y="0">CH</tspan></text></svg>